<svg xmlns="http://www.w3.org/2000/svg" width="1440" height="900" viewBox="0 0 1440 900"><rect width="1440" height="900" fill="#F4F4F0"/><rect x="32" y="28" width="1376" height="844" rx="6" fill="#FFFFFF" stroke="#111111"/><rect x="32" y="28" width="1376" height="64" rx="6" fill="#FFFFFF" stroke="#111111"/><text x="58" y="67" font-family="system-ui" font-size="18" font-weight="800" fill="#111111">美式高对比扁平</text><text x="1030" y="67" font-family="system-ui" font-size="13" fill="#555555">Overview   Activity   Analytics   Settings</text><rect x="1284" y="45" width="96" height="34" rx="2" fill="#FF5A36"/><text x="1332" y="67" text-anchor="middle" font-family="system-ui" font-size="12" font-weight="700" fill="#fff">New item</text><rect x="58" y="126" width="190" height="704" rx="2" fill="#EDEDE7" stroke="#111111"/><text x="78" y="165" font-family="system-ui" font-size="12" font-weight="700" fill="#555555">WORKSPACE</text><rect x="72" y="188" width="162" height="38" rx="2" fill="#FFFFFF" stroke="#111111"/><text x="88" y="213" font-family="system-ui" font-size="13" font-weight="700" fill="#FF5A36">Dashboard</text><text x="88" y="260" font-family="system-ui" font-size="13" fill="#111111">Projects</text><text x="88" y="302" font-family="system-ui" font-size="13" fill="#111111">Customers</text><text x="88" y="344" font-family="system-ui" font-size="13" fill="#111111">Reports</text><text x="284" y="148" font-family="system-ui" font-size="30" font-weight="800" fill="#111111">Good morning</text><text x="284" y="174" font-family="system-ui" font-size="14" fill="#555555">Here is what needs your attention today.</text><rect x="284" y="205" width="237" height="118" rx="2" fill="#FFFFFF" stroke="#111111"/><text x="302" y="238" font-family="system-ui" font-size="12" fill="#555555">Revenue</text><text x="302" y="282" font-family="system-ui" font-size="31" font-weight="800" fill="#111111">$84.2k</text><rect x="541" y="205" width="237" height="118" rx="2" fill="#FFFFFF" stroke="#111111"/><text x="559" y="238" font-family="system-ui" font-size="12" fill="#555555">Active users</text><text x="559" y="282" font-family="system-ui" font-size="31" font-weight="800" fill="#111111">12,480</text><rect x="798" y="205" width="237" height="118" rx="2" fill="#FFFFFF" stroke="#111111"/><text x="816" y="238" font-family="system-ui" font-size="12" fill="#555555">Conversion</text><text x="816" y="282" font-family="system-ui" font-size="31" font-weight="800" fill="#111111">18.6%</text><rect x="1055" y="205" width="237" height="118" rx="2" fill="#FFFFFF" stroke="#111111"/><text x="1073" y="238" font-family="system-ui" font-size="12" fill="#555555">Open tasks</text><text x="1073" y="282" font-family="system-ui" font-size="31" font-weight="800" fill="#111111">23</text><rect x="284" y="345" width="650" height="300" rx="2" fill="#FFFFFF" stroke="#111111"/><text x="304" y="380" font-family="system-ui" font-size="15" font-weight="700" fill="#111111">Performance</text><polyline points="315,585 390,555 462,570 535,505 610,525 680,445 755,470 830,405 905,430" fill="none" stroke="#FF5A36" stroke-width="4"/><line x1="315" y1="600" x2="905" y2="600" stroke="#111111"/><rect x="954" y="345" width="426" height="300" rx="2" fill="#FFFFFF" stroke="#111111"/><text x="974" y="380" font-family="system-ui" font-size="15" font-weight="700" fill="#111111">Recent activity</text><circle cx="988" cy="420" r="5" fill="#FF5A36"/><text x="1005" y="425" font-family="system-ui" font-size="12" fill="#111111">Updated item 1</text><text x="1275" y="425" font-family="system-ui" font-size="11" fill="#555555">2h</text><circle cx="988" cy="470" r="5" fill="#FF5A36"/><text x="1005" y="475" font-family="system-ui" font-size="12" fill="#111111">Updated item 2</text><text x="1275" y="475" font-family="system-ui" font-size="11" fill="#555555">3h</text><circle cx="988" cy="520" r="5" fill="#F3A712"/><text x="1005" y="525" font-family="system-ui" font-size="12" fill="#111111">Updated item 3</text><text x="1275" y="525" font-family="system-ui" font-size="11" fill="#555555">4h</text><circle cx="988" cy="570" r="5" fill="#FF5A36"/><text x="1005" y="575" font-family="system-ui" font-size="12" fill="#111111">Updated item 4</text><text x="1275" y="575" font-family="system-ui" font-size="11" fill="#555555">5h</text><rect x="284" y="667" width="1096" height="163" rx="2" fill="#EDEDE7" stroke="#111111"/><text x="304" y="703" font-family="system-ui" font-size="15" font-weight="700" fill="#111111">Next actions</text><rect x="304" y="730" width="310" height="70" rx="2" fill="#FFFFFF" stroke="#111111"/><rect x="635" y="730" width="310" height="70" rx="2" fill="#FFFFFF" stroke="#111111"/><rect x="966" y="730" width="310" height="70" rx="2" fill="#FFFFFF" stroke="#111111"/></svg>