<svg xmlns="http://www.w3.org/2000/svg" width="1440" height="900" viewBox="0 0 1440 900"><rect width="1440" height="900" fill="#FAFBFC"/><text x="44" y="50" font-family="system-ui,Noto Sans SC" font-size="22" font-weight="700" fill="#1E2933">极简线框</text><text x="44" y="76" font-family="system-ui,Noto Sans SC" font-size="11" font-weight="400" fill="#77838D">工程蓝图纸 · blueprint-sheet</text><line x1="38" y1="92" x2="1402" y2="92" stroke="#C7D1DA"/><line x1="150" y1="130" x2="150" y2="174" stroke="#C7D1DA"/><line x1="198" y1="130" x2="198" y2="156" stroke="#C7D1DA"/><line x1="246" y1="130" x2="246" y2="156" stroke="#C7D1DA"/><line x1="294" y1="130" x2="294" y2="156" stroke="#C7D1DA"/><line x1="342" y1="130" x2="342" y2="156" stroke="#C7D1DA"/><line x1="390" y1="130" x2="390" y2="174" stroke="#C7D1DA"/><line x1="438" y1="130" x2="438" y2="156" stroke="#C7D1DA"/><line x1="486" y1="130" x2="486" y2="156" stroke="#C7D1DA"/><line x1="534" y1="130" x2="534" y2="156" stroke="#C7D1DA"/><line x1="582" y1="130" x2="582" y2="156" stroke="#C7D1DA"/><line x1="630" y1="130" x2="630" y2="174" stroke="#C7D1DA"/><line x1="678" y1="130" x2="678" y2="156" stroke="#C7D1DA"/><line x1="726" y1="130" x2="726" y2="156" stroke="#C7D1DA"/><line x1="774" y1="130" x2="774" y2="156" stroke="#C7D1DA"/><line x1="822" y1="130" x2="822" y2="156" stroke="#C7D1DA"/><line x1="870" y1="130" x2="870" y2="174" stroke="#C7D1DA"/><line x1="918" y1="130" x2="918" y2="156" stroke="#C7D1DA"/><line x1="966" y1="130" x2="966" y2="156" stroke="#C7D1DA"/><line x1="1014" y1="130" x2="1014" y2="156" stroke="#C7D1DA"/><line x1="1062" y1="130" x2="1062" y2="156" stroke="#C7D1DA"/><line x1="1110" y1="130" x2="1110" y2="174" stroke="#C7D1DA"/><line x1="1158" y1="130" x2="1158" y2="156" stroke="#C7D1DA"/><line x1="1206" y1="130" x2="1206" y2="156" stroke="#C7D1DA"/><line x1="1254" y1="130" x2="1254" y2="156" stroke="#C7D1DA"/><line x1="150" y1="174" x2="1290" y2="174" stroke="#C7D1DA"/><text x="160" y="154" font-family="system-ui,Noto Sans SC" font-size="10" font-weight="700" fill="#77838D">MEASURE SHEET / REV 04</text><path d="M360 330h680v300H360z" fill="none" stroke="#1E2933" stroke-width="2"/><circle cx="520" cy="465" r="62" fill="none" stroke="#1E2933" stroke-width="2"/><circle cx="860" cy="465" r="62" fill="none" stroke="#1E2933" stroke-width="2"/><line x1="360" y1="690" x2="1040" y2="690" stroke="#316BE6" stroke-width="2"/><text x="670" y="682" font-family="system-ui,Noto Sans SC" font-size="12" font-weight="700" fill="#316BE6">120.000 mm</text><line x1="520" y1="295" x2="520" y2="330" stroke="#316BE6" stroke-width="2"/><text x="490" y="304.5" font-family="system-ui,Noto Sans SC" font-size="12" font-weight="700" fill="#316BE6">R 24.500</text><line x1="1080" y1="520" x2="1040" y2="520" stroke="#316BE6" stroke-width="2"/><text x="1030" y="512" font-family="system-ui,Noto Sans SC" font-size="12" font-weight="700" fill="#316BE6">± 0.020</text><rect x="1080" y="260" width="260" height="220" rx="0" fill="#FFFFFF" stroke="#C7D1DA" stroke-width="1"/><text x="1100" y="294" font-family="system-ui,Noto Sans SC" font-size="11" font-weight="700" fill="#77838D">NOTES</text><text x="1100" y="336" font-family="system-ui,Noto Sans SC" font-size="12" font-weight="700" fill="#1E2933">X 24.500</text><text x="1100" y="378" font-family="system-ui,Noto Sans SC" font-size="12" font-weight="700" fill="#1E2933">Y 18.200</text><text x="1100" y="420" font-family="system-ui,Noto Sans SC" font-size="12" font-weight="700" fill="#D84E4E">TOL ±0.020</text></svg>