<svg xmlns="http://www.w3.org/2000/svg" width="1440" height="900" viewBox="0 0 1440 900">
<defs>
  <filter id="s" x="-10%" y="-10%" width="120%" height="120%">
    <feDropShadow dx="0" dy="2" stdDeviation="4" flood-color="#18212B" flood-opacity=".12"/>
  </filter>
</defs>
<rect width="1440" height="900" fill="#EEF2F6"/>
<rect x="28" y="28" width="1384" height="844" rx="6" fill="#FFFFFF" stroke="#C7D0DA" filter="url(#s)"/>
<rect x="28" y="28" width="1384" height="54" fill="#FFFFFF" stroke="#C7D0DA"/>
<text x="52" y="62" font-family="system-ui,Segoe UI,sans-serif" font-size="18" font-weight="700" fill="#18212B">System</text>
<text x="135" y="62" font-family="system-ui,Segoe UI,sans-serif" font-size="13" fill="#667481">Inspection / Station 01 / Running</text>
<circle cx="1240" cy="55" r="5" fill="#26A269"/>
<text x="1252" y="61" font-family="system-ui,Segoe UI,sans-serif" font-size="13" font-weight="700" fill="#18212B">RUNNING</text>
<text x="1340" y="61" font-family="system-ui,Segoe UI,sans-serif" font-size="13" fill="#667481">Operator</text>

<rect x="28" y="82" width="235" height="762" fill="#FFFFFF" stroke="#C7D0DA"/>
<text x="48" y="116" font-family="system-ui,Segoe UI,sans-serif" font-size="11" font-weight="700" fill="#667481">WORKFLOW</text>
<g font-family="system-ui,Segoe UI,sans-serif" font-size="13">
 <text x="54" y="151" fill="#18212B">Image Acquisition</text>
 <rect x="42" y="166" width="207" height="34" rx="4" fill="#E6F3FF"/>
 <rect x="42" y="166" width="3" height="34" fill="#1688D8"/>
 <text x="54" y="188" font-weight="700" fill="#0C5F9E">Inspection</text>
 <text x="54" y="225" fill="#18212B">Measurement</text>
 <text x="54" y="262" fill="#18212B">Output</text>
</g>
<text x="48" y="310" font-family="system-ui,Segoe UI,sans-serif" font-size="11" font-weight="700" fill="#667481">SYSTEM</text>
<g font-family="system-ui,Segoe UI,sans-serif" font-size="13" fill="#18212B">
 <text x="54" y="345">Devices</text><text x="54" y="382">Recipes</text><text x="54" y="419">Alarm Center</text><text x="54" y="456">History</text>
</g>

<g font-family="system-ui,Segoe UI,sans-serif">
<rect x="283" y="104" width="196" height="94" rx="3" fill="#FFFFFF" stroke="#C7D0DA"/>
<text x="299" y="130" font-size="11" fill="#667481">Output Today</text><text x="299" y="172" font-size="31" font-weight="700" fill="#18212B">12,684</text>
<rect x="491" y="104" width="196" height="94" rx="3" fill="#FFFFFF" stroke="#C7D0DA"/>
<text x="507" y="130" font-size="11" fill="#667481">Yield</text><text x="507" y="172" font-size="31" font-weight="700" fill="#26A269">99.65%</text>
<rect x="699" y="104" width="196" height="94" rx="3" fill="#FFFFFF" stroke="#C7D0DA"/>
<text x="715" y="130" font-size="11" fill="#667481">Cycle Time</text><text x="715" y="172" font-size="31" font-weight="700" fill="#18212B">41.2 ms</text>
<rect x="907" y="104" width="196" height="94" rx="3" fill="#FFFFFF" stroke="#C7D0DA"/>
<text x="923" y="130" font-size="11" fill="#667481">NG</text><text x="923" y="172" font-size="31" font-weight="700" fill="#D64545">47</text>
</g>

<rect x="283" y="218" width="820" height="580" rx="3" fill="#FFFFFF" stroke="#C7D0DA"/>
<rect x="283" y="218" width="820" height="42" fill="#F8FAFC" stroke="#C7D0DA"/>
<text x="299" y="244" font-family="system-ui,Segoe UI,sans-serif" font-size="13" font-weight="700" fill="#18212B">Current Inspection</text>
<rect x="305" y="282" width="776" height="416" fill="#202A32"/>
<line x1="692" y1="300" x2="692" y2="680" stroke="#38A0E6" stroke-width="1"/>
<line x1="330" y1="490" x2="1056" y2="490" stroke="#38A0E6" stroke-width="1"/>
<rect x="472" y="378" width="430" height="220" rx="6" fill="#D9E1E8" stroke="#8A9AAA" stroke-width="2"/>
<circle cx="530" cy="430" r="26" fill="#667481"/>
<circle cx="845" cy="430" r="26" fill="#667481"/>
<rect x="648" y="428" width="116" height="74" fill="none" stroke="#D64545" stroke-width="3"/>
<text x="1034" y="315" text-anchor="end" font-family="system-ui,Segoe UI,sans-serif" font-size="16" font-weight="700" fill="#7EE2AD">OK</text>

<rect x="1122" y="104" width="268" height="694" rx="3" fill="#FFFFFF" stroke="#C7D0DA"/>
<text x="1142" y="132" font-family="system-ui,Segoe UI,sans-serif" font-size="11" font-weight="700" fill="#667481">SELECTED TOOL</text>
<text x="1142" y="163" font-family="system-ui,Segoe UI,sans-serif" font-size="18" font-weight="700" fill="#18212B">Edge Inspection</text>
<g font-family="system-ui,Segoe UI,sans-serif">
 <text x="1142" y="205" font-size="11" fill="#667481">Threshold</text>
 <rect x="1142" y="216" width="228" height="34" rx="4" fill="#FFFFFF" stroke="#C7D0DA"/><text x="1152" y="238" font-size="13" fill="#18212B">128</text>
 <text x="1142" y="286" font-size="11" fill="#667481">Minimum</text>
 <rect x="1142" y="297" width="142" height="34" rx="4" fill="#FFFFFF" stroke="#C7D0DA"/><text x="1152" y="319" font-size="13" fill="#18212B">40</text>
 <rect x="1293" y="297" width="77" height="34" rx="4" fill="#FFFFFF" stroke="#C7D0DA"/><text x="1303" y="319" font-size="13" fill="#18212B">px</text>
 <text x="1142" y="367" font-size="11" fill="#667481">Direction</text>
 <rect x="1142" y="378" width="228" height="34" rx="4" fill="#FFFFFF" stroke="#C7D0DA"/><text x="1152" y="400" font-size="13" fill="#18212B">Left → Right</text>
 <rect x="1142" y="452" width="86" height="36" rx="4" fill="#1688D8"/><text x="1185" y="475" text-anchor="middle" font-size="13" font-weight="700" fill="#FFFFFF">Apply</text>
 <rect x="1238" y="452" width="66" height="36" rx="4" fill="#FFFFFF" stroke="#9AA9B8"/><text x="1271" y="475" text-anchor="middle" font-size="13" font-weight="700" fill="#18212B">Reset</text>
 <rect x="1314" y="452" width="56" height="36" rx="4" fill="#FFFFFF" stroke="#E4AAAA"/><text x="1342" y="475" text-anchor="middle" font-size="13" font-weight="700" fill="#D64545">Delete</text>
</g>

<rect x="28" y="844" width="1384" height="28" fill="#FFFFFF" stroke="#C7D0DA"/>
<g font-family="system-ui,Segoe UI,sans-serif" font-size="11" fill="#667481">
 <text x="48" y="863">Camera: Online</text><text x="150" y="863">PLC: Online</text><text x="230" y="863">Robot: Ready</text>
 <text x="1380" y="863" text-anchor="end">No active alarm</text>
</g>
</svg>