<svg xmlns="http://www.w3.org/2000/svg" width="1440" height="900"><rect width="1440" height="900" fill="#F2F6F5"/><text x="44" y="50" font-family="system-ui,Noto Sans SC" font-size="22" font-weight="700" fill="#263533">柔和健康</text><text x="44" y="76" font-family="system-ui,Noto Sans SC" font-size="11" font-weight="400" fill="#6B7E7A">健康周环与习惯板 · wellness-week</text><line x1="38" y1="92" x2="1402" y2="92" stroke="#CFDBD8"/><text x="70" y="156" font-family="system-ui,Noto Sans SC" font-size="28" font-weight="700" fill="#263533">Your week</text><text x="70" y="188" font-family="system-ui,Noto Sans SC" font-size="12" font-weight="400" fill="#6B7E7A">Clear signals. Gentle guidance.</text><circle cx="290" cy="428" r="158" fill="none" stroke="#CFDBD8" stroke-width="24"/><circle cx="290" cy="428" r="158" fill="none" stroke="#4D8B86" stroke-width="24" stroke-dasharray="650 342" transform="rotate(-90 290 428)"/><text x="246" y="436" font-family="system-ui,Noto Sans SC" font-size="34" font-weight="700" fill="#263533">72%</text><text x="236" y="470" font-family="system-ui,Noto Sans SC" font-size="11" font-weight="400" fill="#6B7E7A">weekly rhythm</text><text x="590" y="266" font-family="system-ui,Noto Sans SC" font-size="12" font-weight="700" fill="#263533">Sleep</text><rect x="700" y="250" width="520" height="18" rx="9" fill="#E8F0EE"/><rect x="700" y="250" width="390" height="18" rx="9" fill="#4D8B86" opacity="0.55"/><text x="590" y="376" font-family="system-ui,Noto Sans SC" font-size="12" font-weight="700" fill="#263533">Movement</text><rect x="700" y="360" width="520" height="18" rx="9" fill="#E8F0EE"/><rect x="700" y="360" width="450" height="18" rx="9" fill="#4D8B86" opacity="0.65"/><text x="590" y="486" font-family="system-ui,Noto Sans SC" font-size="12" font-weight="700" fill="#263533">Hydration</text><rect x="700" y="470" width="520" height="18" rx="9" fill="#E8F0EE"/><rect x="700" y="470" width="330" height="18" rx="9" fill="#4D8B86" opacity="0.75"/><text x="590" y="596" font-family="system-ui,Noto Sans SC" font-size="12" font-weight="700" fill="#263533">Recovery</text><rect x="700" y="580" width="520" height="18" rx="9" fill="#E8F0EE"/><rect x="700" y="580" width="410" height="18" rx="9" fill="#4D8B86" opacity="0.8500000000000001"/><rect x="590" y="704" width="630" height="92" rx="14" fill="#FFFFFF" stroke="#CFDBD8" stroke-width="1"/><text x="616" y="742" font-family="system-ui,Noto Sans SC" font-size="11" font-weight="700" fill="#6B7E7A">Next action</text><text x="616" y="774" font-family="system-ui,Noto Sans SC" font-size="15" font-weight="700" fill="#4D8B86">Book your recovery session</text></svg>