<svg xmlns="http://www.w3.org/2000/svg" width="1440" height="900"><rect width="1440" height="900" fill="#F3F6FA"/><rect x="30" y="26" width="1380" height="848" rx="6" fill="#FFFFFF" stroke="#C9D5E3"/><rect x="30" y="26" width="1380" height="76" fill="#1E5AA8"/><text x="58" y="72" font-family="system-ui" font-size="22" font-weight="700" fill="#fff">国企政务蓝</text><text x="925" y="72" font-family="system-ui" font-size="13" fill="#fff" opacity=".9">首页　工作台　项目　经营分析　制度文件　系统管理</text><rect x="54" y="126" width="1332" height="100" rx="4" fill="#EAF0F7" stroke="#C9D5E3"/><text x="78" y="163" font-family="system-ui" font-size="26" font-weight="700" fill="#18304B">综合工作台</text><text x="78" y="193" font-family="system-ui" font-size="13" fill="#6D7F93">今日重点事项、经营指标与待办任务</text><rect x="78" y="250" width="226" height="104" rx="4" fill="#FFFFFF" stroke="#C9D5E3"/><text x="94" y="281" font-family="system-ui" font-size="12" fill="#6D7F93">待办事项</text><text x="94" y="326" font-family="system-ui" font-size="30" font-weight="700" fill="#18304B">18</text><rect x="328" y="250" width="226" height="104" rx="4" fill="#FFFFFF" stroke="#C9D5E3"/><text x="344" y="281" font-family="system-ui" font-size="12" fill="#6D7F93">在办项目</text><text x="344" y="326" font-family="system-ui" font-size="30" font-weight="700" fill="#18304B">36</text><rect x="578" y="250" width="226" height="104" rx="4" fill="#FFFFFF" stroke="#C9D5E3"/><text x="594" y="281" font-family="system-ui" font-size="12" fill="#6D7F93">本月完成</text><text x="594" y="326" font-family="system-ui" font-size="30" font-weight="700" fill="#18304B">124</text><rect x="828" y="250" width="226" height="104" rx="4" fill="#FFFFFF" stroke="#C9D5E3"/><text x="844" y="281" font-family="system-ui" font-size="12" fill="#6D7F93">异常提醒</text><text x="844" y="326" font-family="system-ui" font-size="30" font-weight="700" fill="#B84242">3</text><rect x="78" y="382" width="790" height="300" rx="4" fill="#FFFFFF" stroke="#C9D5E3"/><text x="98" y="416" font-family="system-ui" font-size="15" font-weight="700" fill="#18304B">经营趋势</text><polyline points="110,620 205,585 300,598 390,540 480,555 575,495 670,515 760,455 840,470" fill="none" stroke="#1E5AA8" stroke-width="4"/><rect x="892" y="382" width="470" height="300" rx="4" fill="#FFFFFF" stroke="#C9D5E3"/><text x="912" y="416" font-family="system-ui" font-size="15" font-weight="700" fill="#18304B">通知与待办</text><circle cx="925" cy="458" r="4" fill="#1E5AA8"/><text x="940" y="463" font-family="system-ui" font-size="12" fill="#18304B">重点事项 1</text><text x="1298" y="463" font-family="system-ui" font-size="11" fill="#6D7F93">09:20</text><circle cx="925" cy="506" r="4" fill="#1E5AA8"/><text x="940" y="511" font-family="system-ui" font-size="12" fill="#18304B">重点事项 2</text><text x="1298" y="511" font-family="system-ui" font-size="11" fill="#6D7F93">09:28</text><circle cx="925" cy="554" r="4" fill="#1E5AA8"/><text x="940" y="559" font-family="system-ui" font-size="12" fill="#18304B">重点事项 3</text><text x="1298" y="559" font-family="system-ui" font-size="11" fill="#6D7F93">09:36</text><circle cx="925" cy="602" r="4" fill="#1E5AA8"/><text x="940" y="607" font-family="system-ui" font-size="12" fill="#18304B">重点事项 4</text><text x="1298" y="607" font-family="system-ui" font-size="11" fill="#6D7F93">09:44</text><rect x="78" y="708" width="1284" height="130" rx="4" fill="#EAF0F7" stroke="#C9D5E3"/><text x="98" y="741" font-family="system-ui" font-size="14" font-weight="700" fill="#18304B">重点项目</text><rect x="98" y="760" width="380" height="54" rx="4" fill="#FFFFFF" stroke="#C9D5E3"/><rect x="503" y="760" width="380" height="54" rx="4" fill="#FFFFFF" stroke="#C9D5E3"/><rect x="908" y="760" width="380" height="54" rx="4" fill="#FFFFFF" stroke="#C9D5E3"/></svg>