<svg xmlns="http://www.w3.org/2000/svg" width="1440" height="900" viewBox="0 0 1440 900"><rect width="1440" height="900" fill="#04161D"/><text x="44" y="50" font-family="system-ui,Noto Sans SC" font-size="22" font-weight="700" fill="#E8F8F8">数据中枢</text><text x="44" y="76" font-family="system-ui,Noto Sans SC" font-size="11" font-weight="400" fill="#88AAB0">遥测数据墙 · telemetry-wall</text><line x1="38" y1="92" x2="1402" y2="92" stroke="#24545E"/><rect x="34" y="110" width="1372" height="80" rx="2" fill="#0F313A" stroke="#24545E" stroke-width="1"/><text x="54" y="136" font-family="system-ui,Noto Sans SC" font-size="10" font-weight="700" fill="#88AAB0">UPH</text><text x="54" y="170" font-family="system-ui,Noto Sans SC" font-size="22" font-weight="700" fill="#E8F8F8">1248</text><text x="244" y="136" font-family="system-ui,Noto Sans SC" font-size="10" font-weight="700" fill="#88AAB0">YIELD</text><text x="244" y="170" font-family="system-ui,Noto Sans SC" font-size="22" font-weight="700" fill="#E8F8F8">99.2%</text><text x="434" y="136" font-family="system-ui,Noto Sans SC" font-size="10" font-weight="700" fill="#88AAB0">NG</text><text x="434" y="170" font-family="system-ui,Noto Sans SC" font-size="22" font-weight="700" fill="#E8F8F8">16</text><text x="624" y="136" font-family="system-ui,Noto Sans SC" font-size="10" font-weight="700" fill="#88AAB0">CT</text><text x="624" y="170" font-family="system-ui,Noto Sans SC" font-size="22" font-weight="700" fill="#E8F8F8">2.84s</text><text x="814" y="136" font-family="system-ui,Noto Sans SC" font-size="10" font-weight="700" fill="#88AAB0">OEE</text><text x="814" y="170" font-family="system-ui,Noto Sans SC" font-size="22" font-weight="700" fill="#E8F8F8">87%</text><text x="1004" y="136" font-family="system-ui,Noto Sans SC" font-size="10" font-weight="700" fill="#88AAB0">ALARM</text><text x="1004" y="170" font-family="system-ui,Noto Sans SC" font-size="22" font-weight="700" fill="#FF6471">2</text><text x="1194" y="136" font-family="system-ui,Noto Sans SC" font-size="10" font-weight="700" fill="#88AAB0">ONLINE</text><text x="1194" y="170" font-family="system-ui,Noto Sans SC" font-size="22" font-weight="700" fill="#E8F8F8">6/6</text><rect x="34" y="208" width="660" height="270" rx="3" fill="#0A242D" stroke="#24545E" stroke-width="1"/><text x="52" y="238" font-family="system-ui,Noto Sans SC" font-size="11" font-weight="700" fill="#88AAB0">PRODUCTION TREND</text><rect x="712" y="208" width="694" height="270" rx="3" fill="#0A242D" stroke="#24545E" stroke-width="1"/><text x="730" y="238" font-family="system-ui,Noto Sans SC" font-size="11" font-weight="700" fill="#88AAB0">DEFECT PARETO</text><rect x="34" y="496" width="820" height="330" rx="3" fill="#0A242D" stroke="#24545E" stroke-width="1"/><text x="52" y="526" font-family="system-ui,Noto Sans SC" font-size="11" font-weight="700" fill="#88AAB0">STATION HEATMAP</text><rect x="872" y="496" width="534" height="330" rx="3" fill="#0A242D" stroke="#24545E" stroke-width="1"/><text x="890" y="526" font-family="system-ui,Noto Sans SC" font-size="11" font-weight="700" fill="#88AAB0">EXCEPTION WATERFALL</text><line x1="60" y1="438" x2="666" y2="438" stroke="#24545E"/><polyline points="60,393.2 156.96,366 253.92000000000002,382 350.88,322.8 459.96000000000004,346.8 556.92,300.4 666,327.6" fill="none" stroke="#19D7C5" stroke-width="4"/><rect x="752" y="442" width="34" height="28" fill="#19D7C5" opacity="0.3"/><rect x="826" y="424" width="34" height="46" fill="#19D7C5" opacity="0.37"/><rect x="900" y="406" width="34" height="64" fill="#19D7C5" opacity="0.44"/><rect x="974" y="388" width="34" height="82" fill="#19D7C5" opacity="0.51"/><rect x="1048" y="370" width="34" height="100" fill="#19D7C5" opacity="0.5800000000000001"/><rect x="1122" y="352" width="34" height="118" fill="#19D7C5" opacity="0.65"/><rect x="1196" y="334" width="34" height="136" fill="#19D7C5" opacity="0.72"/><rect x="1270" y="316" width="34" height="154" fill="#19D7C5" opacity="0.79"/><rect x="58" y="550" width="106" height="42" rx="2" fill="#FFB849" stroke="#24545E"/><rect x="180" y="550" width="106" height="42" rx="2" fill="#0F313A" stroke="#24545E"/><rect x="302" y="550" width="106" height="42" rx="2" fill="#0F313A" stroke="#24545E"/><rect x="424" y="550" width="106" height="42" rx="2" fill="#0F313A" stroke="#24545E"/><rect x="546" y="550" width="106" height="42" rx="2" fill="#0F313A" stroke="#24545E"/><rect x="668" y="550" width="106" height="42" rx="2" fill="#0F313A" stroke="#24545E"/><rect x="58" y="608" width="106" height="42" rx="2" fill="#0F313A" stroke="#24545E"/><rect x="180" y="608" width="106" height="42" rx="2" fill="#0F313A" stroke="#24545E"/><rect x="302" y="608" width="106" height="42" rx="2" fill="#0F313A" stroke="#24545E"/><rect x="424" y="608" width="106" height="42" rx="2" fill="#0F313A" stroke="#24545E"/><rect x="546" y="608" width="106" height="42" rx="2" fill="#0F313A" stroke="#24545E"/><rect x="668" y="608" width="106" height="42" rx="2" fill="#0F313A" stroke="#24545E"/><rect x="58" y="666" width="106" height="42" rx="2" fill="#0F313A" stroke="#24545E"/><rect x="180" y="666" width="106" height="42" rx="2" fill="#0F313A" stroke="#24545E"/><rect x="302" y="666" width="106" height="42" rx="2" fill="#0F313A" stroke="#24545E"/><rect x="424" y="666" width="106" height="42" rx="2" fill="#0F313A" stroke="#24545E"/><rect x="546" y="666" width="106" height="42" rx="2" fill="#0F313A" stroke="#24545E"/><rect x="668" y="666" width="106" height="42" rx="2" fill="#0F313A" stroke="#24545E"/><rect x="58" y="724" width="106" height="42" rx="2" fill="#0F313A" stroke="#24545E"/><rect x="180" y="724" width="106" height="42" rx="2" fill="#0F313A" stroke="#24545E"/><rect x="302" y="724" width="106" height="42" rx="2" fill="#0F313A" stroke="#24545E"/><rect x="424" y="724" width="106" height="42" rx="2" fill="#0F313A" stroke="#24545E"/><rect x="546" y="724" width="106" height="42" rx="2" fill="#0F313A" stroke="#24545E"/><rect x="668" y="724" width="106" height="42" rx="2" fill="#FFB849" stroke="#24545E"/><text x="896" y="550" font-family="system-ui,Noto Sans SC" font-size="11" font-weight="400" fill="#FF6471">01  Vision timeout</text><text x="896" y="600" font-family="system-ui,Noto Sans SC" font-size="11" font-weight="400" fill="#FF6471">02  NG spike</text><text x="896" y="650" font-family="system-ui,Noto Sans SC" font-size="11" font-weight="400" fill="#E8F8F8">03  PLC retry</text><text x="896" y="700" font-family="system-ui,Noto Sans SC" font-size="11" font-weight="400" fill="#E8F8F8">04  Cycle drift</text><text x="896" y="750" font-family="system-ui,Noto Sans SC" font-size="11" font-weight="400" fill="#E8F8F8">05  Camera reconnect</text></svg>