<svg xmlns="http://www.w3.org/2000/svg" width="1700" height="1456" viewBox="0 0 1700 1456"><rect width="1700" height="1456" fill="#F6F1E9"/><text x="34" y="44" font-family="system-ui,Noto Sans SC" font-size="26" font-weight="800" fill="#342B25">低奢柔金 · ALL PAGES</text><text x="34" y="70" font-family="system-ui" font-size="12" fill="#786A60">12-page product system · desktop + mobile · showcase-grade preview</text><rect x="34" y="96" width="532" height="310" rx="8" fill="#FFFDFC" stroke="#D8C8B4"/><text x="48" y="120" font-family="system-ui,Noto Sans SC" font-size="12" font-weight="700" fill="#342B25">01 会员首页</text><text x="552" y="120" text-anchor="end" font-family="system-ui" font-size="9" fill="#786A60">overview</text><rect x="46" y="134" width="508" height="72.80000000000001" rx="6" fill="#EEE5D8"/><rect x="46" y="222.4" width="317.44" height="150.79999999999998" rx="6" fill="#F6F1E9" stroke="#D8C8B4"/><rect x="375.44" y="222.4" width="178.56" height="150.79999999999998" rx="6" fill="#FFFDFC" stroke="#D8C8B4"/><rect x="584" y="96" width="532" height="310" rx="8" fill="#FFFDFC" stroke="#D8C8B4"/><text x="598" y="120" font-family="system-ui,Noto Sans SC" font-size="12" font-weight="700" fill="#342B25">02 会员身份</text><text x="1102" y="120" text-anchor="end" font-family="system-ui" font-size="9" fill="#786A60">membership</text><rect x="596" y="134" width="95.75999999999999" height="260" rx="4" fill="#EEE5D8"/><rect x="703.76" y="134" width="287.28000000000003" height="260" rx="4" fill="#F6F1E9" stroke="#D8C8B4"/><rect x="1003.04" y="134" width="95.75999999999999" height="260" rx="4" fill="#EEE5D8"/><rect x="1134" y="96" width="532" height="310" rx="8" fill="#FFFDFC" stroke="#D8C8B4"/><text x="1148" y="120" font-family="system-ui,Noto Sans SC" font-size="12" font-weight="700" fill="#342B25">03 礼宾服务</text><text x="1652" y="120" text-anchor="end" font-family="system-ui" font-size="9" fill="#786A60">service</text><rect x="1152" y="142" width="149.33333333333334" height="112" rx="6" fill="#FFFDFC" stroke="#D8C8B4"/><rect x="1329.3333333333333" y="142" width="149.33333333333334" height="112" rx="6" fill="#EEE5D8" stroke="#D8C8B4"/><rect x="1506.6666666666667" y="142" width="149.33333333333334" height="112" rx="6" fill="#FFFDFC" stroke="#D8C8B4"/><rect x="1152" y="272" width="149.33333333333334" height="112" rx="6" fill="#FFFDFC" stroke="#D8C8B4"/><rect x="1329.3333333333333" y="272" width="149.33333333333334" height="112" rx="6" fill="#FFFDFC" stroke="#D8C8B4"/><rect x="1506.6666666666667" y="272" width="149.33333333333334" height="112" rx="6" fill="#FFFDFC" stroke="#D8C8B4"/><rect x="34" y="424" width="532" height="310" rx="8" fill="#FFFDFC" stroke="#D8C8B4"/><text x="48" y="448" font-family="system-ui,Noto Sans SC" font-size="12" font-weight="700" fill="#342B25">04 预约</text><text x="552" y="448" text-anchor="end" font-family="system-ui" font-size="9" fill="#786A60">booking</text><circle cx="236.16" cy="586.8" r="52" fill="none" stroke="#9A7850" stroke-width="10"/><rect x="363.84" y="472" width="148.96" height="240" rx="6" fill="#EEE5D8" stroke="#D8C8B4"/><rect x="584" y="424" width="532" height="310" rx="8" fill="#FFFDFC" stroke="#D8C8B4"/><text x="598" y="448" font-family="system-ui,Noto Sans SC" font-size="12" font-weight="700" fill="#342B25">05 服务详情</text><text x="1102" y="448" text-anchor="end" font-family="system-ui" font-size="9" fill="#786A60">detail</text><rect x="596" y="462" width="508" height="72.80000000000001" rx="6" fill="#EEE5D8"/><rect x="596" y="550.4" width="317.44" height="150.79999999999998" rx="6" fill="#F6F1E9" stroke="#D8C8B4"/><rect x="925.44" y="550.4" width="178.56" height="150.79999999999998" rx="6" fill="#FFFDFC" stroke="#D8C8B4"/><rect x="1134" y="424" width="532" height="310" rx="8" fill="#FFFDFC" stroke="#D8C8B4"/><text x="1148" y="448" font-family="system-ui,Noto Sans SC" font-size="12" font-weight="700" fill="#342B25">06 日程</text><text x="1652" y="448" text-anchor="end" font-family="system-ui" font-size="9" fill="#786A60">schedule</text><rect x="1146" y="462" width="95.75999999999999" height="260" rx="4" fill="#EEE5D8"/><rect x="1253.76" y="462" width="287.28000000000003" height="260" rx="4" fill="#F6F1E9" stroke="#D8C8B4"/><rect x="1553.04" y="462" width="95.75999999999999" height="260" rx="4" fill="#EEE5D8"/><rect x="34" y="752" width="532" height="310" rx="8" fill="#FFFDFC" stroke="#D8C8B4"/><text x="48" y="776" font-family="system-ui,Noto Sans SC" font-size="12" font-weight="700" fill="#342B25">07 订单与账单</text><text x="552" y="776" text-anchor="end" font-family="system-ui" font-size="9" fill="#786A60">orders</text><rect x="52" y="798" width="149.33333333333334" height="112" rx="6" fill="#FFFDFC" stroke="#D8C8B4"/><rect x="229.33333333333334" y="798" width="149.33333333333334" height="112" rx="6" fill="#EEE5D8" stroke="#D8C8B4"/><rect x="406.6666666666667" y="798" width="149.33333333333334" height="112" rx="6" fill="#FFFDFC" stroke="#D8C8B4"/><rect x="52" y="928" width="149.33333333333334" height="112" rx="6" fill="#FFFDFC" stroke="#D8C8B4"/><rect x="229.33333333333334" y="928" width="149.33333333333334" height="112" rx="6" fill="#FFFDFC" stroke="#D8C8B4"/><rect x="406.6666666666667" y="928" width="149.33333333333334" height="112" rx="6" fill="#FFFDFC" stroke="#D8C8B4"/><rect x="584" y="752" width="532" height="310" rx="8" fill="#FFFDFC" stroke="#D8C8B4"/><text x="598" y="776" font-family="system-ui,Noto Sans SC" font-size="12" font-weight="700" fill="#342B25">08 精选内容</text><text x="1102" y="776" text-anchor="end" font-family="system-ui" font-size="9" fill="#786A60">editorial</text><circle cx="786.16" cy="914.8" r="52" fill="none" stroke="#9A7850" stroke-width="10"/><rect x="913.8399999999999" y="800" width="148.96" height="240" rx="6" fill="#EEE5D8" stroke="#D8C8B4"/><rect x="1134" y="752" width="532" height="310" rx="8" fill="#FFFDFC" stroke="#D8C8B4"/><text x="1148" y="776" font-family="system-ui,Noto Sans SC" font-size="12" font-weight="700" fill="#342B25">09 个人档案</text><text x="1652" y="776" text-anchor="end" font-family="system-ui" font-size="9" fill="#786A60">profile</text><rect x="1146" y="790" width="508" height="72.80000000000001" rx="6" fill="#EEE5D8"/><rect x="1146" y="878.4" width="317.44" height="150.79999999999998" rx="6" fill="#F6F1E9" stroke="#D8C8B4"/><rect x="1475.44" y="878.4" width="178.56" height="150.79999999999998" rx="6" fill="#FFFDFC" stroke="#D8C8B4"/><rect x="34" y="1080" width="532" height="310" rx="8" fill="#FFFDFC" stroke="#D8C8B4"/><text x="48" y="1104" font-family="system-ui,Noto Sans SC" font-size="12" font-weight="700" fill="#342B25">10 隐私设置</text><text x="552" y="1104" text-anchor="end" font-family="system-ui" font-size="9" fill="#786A60">settings</text><rect x="46" y="1118" width="95.75999999999999" height="260" rx="4" fill="#EEE5D8"/><rect x="153.76" y="1118" width="287.28000000000003" height="260" rx="4" fill="#F6F1E9" stroke="#D8C8B4"/><rect x="453.03999999999996" y="1118" width="95.75999999999999" height="260" rx="4" fill="#EEE5D8"/><rect x="584" y="1080" width="532" height="310" rx="8" fill="#FFFDFC" stroke="#D8C8B4"/><text x="598" y="1104" font-family="system-ui,Noto Sans SC" font-size="12" font-weight="700" fill="#342B25">11 移动会员首页</text><text x="1102" y="1104" text-anchor="end" font-family="system-ui" font-size="9" fill="#786A60">mobile</text><rect x="790" y="1118" width="120" height="260" rx="12" fill="#F6F1E9" stroke="#D8C8B4"/><rect x="799" y="1130" width="102" height="88.4" rx="8" fill="#EEE5D8" stroke="#D8C8B4"/><rect x="799" y="1227.2" width="102" height="18" rx="5" fill="#9A7850" opacity=".85"/><rect x="799" y="1263.6" width="102" height="46" rx="7" fill="#FFFDFC" stroke="#D8C8B4"/><rect x="1134" y="1080" width="532" height="310" rx="8" fill="#FFFDFC" stroke="#D8C8B4"/><text x="1148" y="1104" font-family="system-ui,Noto Sans SC" font-size="12" font-weight="700" fill="#342B25">12 移动预约</text><text x="1652" y="1104" text-anchor="end" font-family="system-ui" font-size="9" fill="#786A60">mobile-booking</text><rect x="1340" y="1118" width="120" height="260" rx="12" fill="#F6F1E9" stroke="#D8C8B4"/><rect x="1349" y="1130" width="102" height="88.4" rx="8" fill="#EEE5D8" stroke="#D8C8B4"/><rect x="1349" y="1227.2" width="102" height="18" rx="5" fill="#9A7850" opacity=".85"/><rect x="1349" y="1263.6" width="102" height="46" rx="7" fill="#FFFDFC" stroke="#D8C8B4"/></svg>