<svg xmlns="http://www.w3.org/2000/svg" width="1440" height="900"><rect width="1440" height="900" fill="#EFF3F6"/><rect x="28" y="28" width="1384" height="844" rx="8" fill="#FFFFFF" stroke="#CBD5DC"/><rect x="28" y="28" width="1384" height="54" fill="#F6F9FA" stroke="#CBD5DC"/><text x="52" y="62" font-family="system-ui" font-size="18" font-weight="700" fill="#1D2A31">模块拼接</text><text x="230" y="62" font-family="system-ui" font-size="13" fill="#70808A">Inspection / Station 01</text><circle cx="1260" cy="55" r="5" fill="#29966F"/><text x="1273" y="61" font-family="system-ui" font-size="13" font-weight="700" fill="#1D2A31">RUNNING</text><rect x="28" y="82" width="235" height="762" fill="#FFFFFF" stroke="#CBD5DC"/><text x="48" y="116" font-family="system-ui" font-size="11" fill="#70808A">WORKFLOW</text><rect x="42" y="150" width="207" height="36" rx="6" fill="#F6F9FA" stroke="#29966F"/><text x="54" y="173" font-family="system-ui" font-size="13" font-weight="700" fill="#29966F">Inspection</text><rect x="283" y="104" width="188" height="92" rx="6" fill="#FFFFFF" stroke="#CBD5DC"/><text x="297" y="130" font-family="system-ui" font-size="11" fill="#70808A">Yield</text><text x="297" y="170" font-family="system-ui" font-size="30" font-weight="700" fill="#29966F">99.65%</text><rect x="487" y="104" width="188" height="92" rx="6" fill="#FFFFFF" stroke="#CBD5DC"/><text x="501" y="130" font-family="system-ui" font-size="11" fill="#70808A">Output</text><text x="501" y="170" font-family="system-ui" font-size="30" font-weight="700" fill="#1D2A31">12,684</text><rect x="691" y="104" width="188" height="92" rx="6" fill="#FFFFFF" stroke="#CBD5DC"/><text x="705" y="130" font-family="system-ui" font-size="11" fill="#70808A">NG</text><text x="705" y="170" font-family="system-ui" font-size="30" font-weight="700" fill="#D94F55">47</text><rect x="895" y="104" width="188" height="92" rx="6" fill="#FFFFFF" stroke="#CBD5DC"/><text x="909" y="130" font-family="system-ui" font-size="11" fill="#70808A">Cycle</text><text x="909" y="170" font-family="system-ui" font-size="30" font-weight="700" fill="#1D2A31">41 ms</text><rect x="283" y="218" width="820" height="580" rx="6" fill="#FFFFFF" stroke="#CBD5DC"/><rect x="283" y="218" width="820" height="42" fill="#F6F9FA" stroke="#CBD5DC"/><text x="300" y="244" font-family="system-ui" font-size="13" font-weight="700" fill="#1D2A31">Current Inspection</text><rect x="305" y="282" width="776" height="416" fill="#DCE4EA"/><rect x="470" y="375" width="430" height="220" rx="6" fill="#F6F9FA" stroke="#70808A" stroke-width="2"/><circle cx="540" cy="438" r="28" fill="#EFF3F6"/><circle cx="830" cy="438" r="28" fill="#EFF3F6"/><circle cx="688" cy="490" r="58" fill="#EFF3F6"/><rect x="640" y="425" width="120" height="76" fill="none" stroke="#29966F" stroke-width="3"/><line x1="688" y1="300" x2="688" y2="680" stroke="#29966F" opacity=".7"/><line x1="330" y1="490" x2="1050" y2="490" stroke="#29966F" opacity=".7"/><text x="1035" y="315" text-anchor="end" font-family="system-ui" font-size="16" font-weight="700" fill="#29966F">OK</text><rect x="1122" y="104" width="268" height="694" rx="6" fill="#FFFFFF" stroke="#CBD5DC"/><text x="1142" y="133" font-family="system-ui" font-size="11" fill="#70808A">SELECTED TOOL</text><text x="1142" y="165" font-family="system-ui" font-size="18" font-weight="700" fill="#1D2A31">Edge Inspection</text><text x="1142" y="210" font-family="system-ui" font-size="11" fill="#70808A">Threshold</text><rect x="1142" y="220" width="228" height="34" rx="6" fill="#F6F9FA" stroke="#CBD5DC"/><text x="1142" y="280" font-family="system-ui" font-size="11" fill="#70808A">Minimum</text><rect x="1142" y="290" width="228" height="34" rx="6" fill="#F6F9FA" stroke="#CBD5DC"/><text x="1142" y="350" font-family="system-ui" font-size="11" fill="#70808A">Direction</text><rect x="1142" y="360" width="228" height="34" rx="6" fill="#F6F9FA" stroke="#CBD5DC"/><text x="1142" y="420" font-family="system-ui" font-size="11" fill="#70808A">Decision</text><rect x="1142" y="430" width="228" height="34" rx="6" fill="#F6F9FA" stroke="#CBD5DC"/><rect x="1142" y="515" width="92" height="36" rx="6" fill="#29966F"/><text x="1188" y="538" text-anchor="middle" font-family="system-ui" font-size="13" font-weight="700" fill="#fff">Apply</text><rect x="28" y="844" width="1384" height="28" fill="#F6F9FA" stroke="#CBD5DC"/><text x="48" y="863" font-family="system-ui" font-size="11" fill="#70808A">Camera Online · PLC Online · Robot Ready</text></svg>