<svg xmlns="http://www.w3.org/2000/svg" width="1440" height="900"><rect width="1440" height="900" fill="#F4F2F3"/><rect x="34" y="28" width="1372" height="844" rx="13" fill="#FFFFFF" stroke="#D8D0D4"/><rect x="34" y="28" width="1372" height="66" fill="#FFFFFF" stroke="#D8D0D4"/><text x="62" y="69" font-family="system-ui" font-size="20" font-weight="700" fill="#292326">都市轻熟</text><text x="1060" y="69" font-family="system-ui" font-size="13" fill="#746A70">Explore　Bookings　Membership　Profile</text><rect x="62" y="126" width="1316" height="210" rx="15" fill="#ECE8EA"/><text x="92" y="180" font-family="system-ui" font-size="34" font-weight="700" fill="#292326">Make today feel easier.</text><text x="92" y="215" font-family="system-ui" font-size="15" fill="#746A70">Your next booking, plan and benefits — in one place.</text><rect x="92" y="250" width="128" height="42" rx="9" fill="#A63D63"/><text x="156" y="276" text-anchor="middle" font-family="system-ui" font-size="13" font-weight="700" fill="#fff">View plan</text><circle cx="1180" cy="230" r="78" fill="#FFFFFF" stroke="#D8D0D4" stroke-width="2"/><circle cx="1180" cy="230" r="48" fill="none" stroke="#A63D63" stroke-width="10"/><text x="1180" y="237" text-anchor="middle" font-family="system-ui" font-size="23" font-weight="700" fill="#292326">72%</text><text x="62" y="390" font-family="system-ui" font-size="20" font-weight="700" fill="#292326">For you</text><rect x="62" y="416" width="404" height="190" rx="9" fill="#FFFFFF" stroke="#D8D0D4"/><rect x="80" y="436" width="112" height="112" rx="9" fill="#ECE8EA"/><text x="212" y="462" font-family="system-ui" font-size="14" font-weight="700" fill="#292326">Next appointment</text><text x="212" y="490" font-family="system-ui" font-size="12" fill="#746A70">Tue · 10:30</text><rect x="212" y="520" width="90" height="32" rx="9" fill="#ECE8EA" stroke="#D8D0D4"/></svg><rect x="492" y="416" width="404" height="190" rx="9" fill="#FFFFFF" stroke="#D8D0D4"/><rect x="510" y="436" width="112" height="112" rx="9" fill="#ECE8EA"/><text x="642" y="462" font-family="system-ui" font-size="14" font-weight="700" fill="#292326">Member benefits</text><text x="642" y="490" font-family="system-ui" font-size="12" fill="#746A70">3 benefits available</text><rect x="642" y="520" width="90" height="32" rx="9" fill="#ECE8EA" stroke="#D8D0D4"/></svg><rect x="922" y="416" width="404" height="190" rx="9" fill="#FFFFFF" stroke="#D8D0D4"/><rect x="940" y="436" width="112" height="112" rx="9" fill="#ECE8EA"/><text x="1072" y="462" font-family="system-ui" font-size="14" font-weight="700" fill="#292326">Saved plan</text><text x="1072" y="490" font-family="system-ui" font-size="12" fill="#746A70">Continue where you left off</text><rect x="1072" y="520" width="90" height="32" rx="9" fill="#ECE8EA" stroke="#D8D0D4"/></svg><text x="62" y="660" font-family="system-ui" font-size="20" font-weight="700" fill="#292326">This week</text><rect x="62" y="686" width="1316" height="140" rx="9" fill="#ECE8EA" stroke="#D8D0D4"/><line x1="100" y1="770" x2="1325" y2="770" stroke="#D8D0D4" stroke-width="3"/><circle cx="260" cy="770" r="9" fill="#A63D63"/><circle cx="565" cy="770" r="9" fill="#4F8B6D"/><circle cx="870" cy="770" r="9" fill="#A63D63"/><circle cx="1175" cy="770" r="9" fill="#B9853B"/></svg>