<svg xmlns="http://www.w3.org/2000/svg" width="1440" height="900" viewBox="0 0 1440 900"><rect width="1440" height="900" fill="#F6F8FB"/><rect x="32" y="28" width="1376" height="844" rx="14" fill="#FFFFFF" stroke="#D9E2EC"/><rect x="32" y="28" width="1376" height="64" rx="14" fill="#FFFFFF" stroke="#D9E2EC"/><text x="58" y="67" font-family="system-ui" font-size="18" font-weight="800" fill="#0F172A">美式SaaS清爽</text><text x="1030" y="67" font-family="system-ui" font-size="13" fill="#64748B">Overview   Activity   Analytics   Settings</text><rect x="1284" y="45" width="96" height="34" rx="10" fill="#2563EB"/><text x="1332" y="67" text-anchor="middle" font-family="system-ui" font-size="12" font-weight="700" fill="#fff">New item</text><rect x="58" y="126" width="190" height="704" rx="10" fill="#F1F5F9" stroke="#D9E2EC"/><text x="78" y="165" font-family="system-ui" font-size="12" font-weight="700" fill="#64748B">WORKSPACE</text><rect x="72" y="188" width="162" height="38" rx="10" fill="#FFFFFF" stroke="#D9E2EC"/><text x="88" y="213" font-family="system-ui" font-size="13" font-weight="700" fill="#2563EB">Dashboard</text><text x="88" y="260" font-family="system-ui" font-size="13" fill="#0F172A">Projects</text><text x="88" y="302" font-family="system-ui" font-size="13" fill="#0F172A">Customers</text><text x="88" y="344" font-family="system-ui" font-size="13" fill="#0F172A">Reports</text><text x="284" y="148" font-family="system-ui" font-size="30" font-weight="800" fill="#0F172A">Good morning</text><text x="284" y="174" font-family="system-ui" font-size="14" fill="#64748B">Here is what needs your attention today.</text><rect x="284" y="205" width="237" height="118" rx="10" fill="#FFFFFF" stroke="#D9E2EC"/><text x="302" y="238" font-family="system-ui" font-size="12" fill="#64748B">Revenue</text><text x="302" y="282" font-family="system-ui" font-size="31" font-weight="800" fill="#0F172A">$84.2k</text><rect x="541" y="205" width="237" height="118" rx="10" fill="#FFFFFF" stroke="#D9E2EC"/><text x="559" y="238" font-family="system-ui" font-size="12" fill="#64748B">Active users</text><text x="559" y="282" font-family="system-ui" font-size="31" font-weight="800" fill="#0F172A">12,480</text><rect x="798" y="205" width="237" height="118" rx="10" fill="#FFFFFF" stroke="#D9E2EC"/><text x="816" y="238" font-family="system-ui" font-size="12" fill="#64748B">Conversion</text><text x="816" y="282" font-family="system-ui" font-size="31" font-weight="800" fill="#0F172A">18.6%</text><rect x="1055" y="205" width="237" height="118" rx="10" fill="#FFFFFF" stroke="#D9E2EC"/><text x="1073" y="238" font-family="system-ui" font-size="12" fill="#64748B">Open tasks</text><text x="1073" y="282" font-family="system-ui" font-size="31" font-weight="800" fill="#0F172A">23</text><rect x="284" y="345" width="650" height="300" rx="10" fill="#FFFFFF" stroke="#D9E2EC"/><text x="304" y="380" font-family="system-ui" font-size="15" font-weight="700" fill="#0F172A">Performance</text><polyline points="315,585 390,555 462,570 535,505 610,525 680,445 755,470 830,405 905,430" fill="none" stroke="#2563EB" stroke-width="4"/><line x1="315" y1="600" x2="905" y2="600" stroke="#D9E2EC"/><rect x="954" y="345" width="426" height="300" rx="10" fill="#FFFFFF" stroke="#D9E2EC"/><text x="974" y="380" font-family="system-ui" font-size="15" font-weight="700" fill="#0F172A">Recent activity</text><circle cx="988" cy="420" r="5" fill="#2563EB"/><text x="1005" y="425" font-family="system-ui" font-size="12" fill="#0F172A">Updated item 1</text><text x="1275" y="425" font-family="system-ui" font-size="11" fill="#64748B">2h</text><circle cx="988" cy="470" r="5" fill="#2563EB"/><text x="1005" y="475" font-family="system-ui" font-size="12" fill="#0F172A">Updated item 2</text><text x="1275" y="475" font-family="system-ui" font-size="11" fill="#64748B">3h</text><circle cx="988" cy="520" r="5" fill="#D97706"/><text x="1005" y="525" font-family="system-ui" font-size="12" fill="#0F172A">Updated item 3</text><text x="1275" y="525" font-family="system-ui" font-size="11" fill="#64748B">4h</text><circle cx="988" cy="570" r="5" fill="#2563EB"/><text x="1005" y="575" font-family="system-ui" font-size="12" fill="#0F172A">Updated item 4</text><text x="1275" y="575" font-family="system-ui" font-size="11" fill="#64748B">5h</text><rect x="284" y="667" width="1096" height="163" rx="10" fill="#F1F5F9" stroke="#D9E2EC"/><text x="304" y="703" font-family="system-ui" font-size="15" font-weight="700" fill="#0F172A">Next actions</text><rect x="304" y="730" width="310" height="70" rx="10" fill="#FFFFFF" stroke="#D9E2EC"/><rect x="635" y="730" width="310" height="70" rx="10" fill="#FFFFFF" stroke="#D9E2EC"/><rect x="966" y="730" width="310" height="70" rx="10" fill="#FFFFFF" stroke="#D9E2EC"/></svg>