<svg xmlns="http://www.w3.org/2000/svg" width="1440" height="900"><rect width="1440" height="900" fill="#EEF2F5"/><text x="44" y="50" font-family="system-ui,Noto Sans SC" font-size="22" font-weight="700" fill="#253544">国企稳健商务</text><text x="44" y="76" font-family="system-ui,Noto Sans SC" font-size="11" font-weight="400" fill="#70808E">审批经营操作台 · approval-operations</text><line x1="38" y1="92" x2="1402" y2="92" stroke="#CCD4DB"/><rect x="40" y="112" width="260" height="728" rx="3" fill="#FFFFFF" stroke="#CCD4DB" stroke-width="1"/><rect x="318" y="112" width="760" height="728" rx="3" fill="#FFFFFF" stroke="#CCD4DB" stroke-width="1"/><rect x="1096" y="112" width="306" height="728" rx="3" fill="#FFFFFF" stroke="#CCD4DB" stroke-width="1"/><text x="62" y="148" font-family="system-ui,Noto Sans SC" font-size="13" font-weight="700" fill="#253544">待办队列</text><rect x="58" y="176" width="224" height="44" rx="2" fill="#FFFFFF" stroke="#CCD4DB" stroke-width="1"/><text x="72" y="204" font-family="system-ui,Noto Sans SC" font-size="11" font-weight="400" fill="#253544">事项 01</text><rect x="58" y="236" width="224" height="44" rx="2" fill="#FFFFFF" stroke="#CCD4DB" stroke-width="1"/><text x="72" y="264" font-family="system-ui,Noto Sans SC" font-size="11" font-weight="400" fill="#253544">事项 02</text><rect x="58" y="296" width="224" height="44" rx="2" fill="#F4F6F8" stroke="#CCD4DB" stroke-width="1"/><text x="72" y="324" font-family="system-ui,Noto Sans SC" font-size="11" font-weight="700" fill="#253544">事项 03</text><rect x="58" y="356" width="224" height="44" rx="2" fill="#FFFFFF" stroke="#CCD4DB" stroke-width="1"/><text x="72" y="384" font-family="system-ui,Noto Sans SC" font-size="11" font-weight="400" fill="#253544">事项 04</text><rect x="58" y="416" width="224" height="44" rx="2" fill="#FFFFFF" stroke="#CCD4DB" stroke-width="1"/><text x="72" y="444" font-family="system-ui,Noto Sans SC" font-size="11" font-weight="400" fill="#253544">事项 05</text><rect x="58" y="476" width="224" height="44" rx="2" fill="#FFFFFF" stroke="#CCD4DB" stroke-width="1"/><text x="72" y="504" font-family="system-ui,Noto Sans SC" font-size="11" font-weight="400" fill="#253544">事项 06</text><rect x="58" y="536" width="224" height="44" rx="2" fill="#FFFFFF" stroke="#CCD4DB" stroke-width="1"/><text x="72" y="564" font-family="system-ui,Noto Sans SC" font-size="11" font-weight="400" fill="#253544">事项 07</text><rect x="58" y="596" width="224" height="44" rx="2" fill="#FFFFFF" stroke="#CCD4DB" stroke-width="1"/><text x="72" y="624" font-family="system-ui,Noto Sans SC" font-size="11" font-weight="400" fill="#253544">事项 08</text><rect x="58" y="656" width="224" height="44" rx="2" fill="#FFFFFF" stroke="#CCD4DB" stroke-width="1"/><text x="72" y="684" font-family="system-ui,Noto Sans SC" font-size="11" font-weight="400" fill="#253544">事项 09</text><text x="342" y="148" font-family="system-ui,Noto Sans SC" font-size="13" font-weight="700" fill="#253544">经营事项</text><line x1="342" y1="190" x2="1054" y2="190" stroke="#CCD4DB"/><text x="352" y="180" font-family="system-ui,Noto Sans SC" font-size="11" font-weight="400" fill="#B78332">PJ-240     项目 1     待审批     72%</text><line x1="342" y1="238" x2="1054" y2="238" stroke="#CCD4DB"/><text x="352" y="228" font-family="system-ui,Noto Sans SC" font-size="11" font-weight="400" fill="#253544">PJ-241     项目 2     进行中     74%</text><line x1="342" y1="286" x2="1054" y2="286" stroke="#CCD4DB"/><text x="352" y="276" font-family="system-ui,Noto Sans SC" font-size="11" font-weight="400" fill="#253544">PJ-242     项目 3     进行中     76%</text><line x1="342" y1="334" x2="1054" y2="334" stroke="#CCD4DB"/><text x="352" y="324" font-family="system-ui,Noto Sans SC" font-size="11" font-weight="400" fill="#B78332">PJ-243     项目 4     待审批     78%</text><line x1="342" y1="382" x2="1054" y2="382" stroke="#CCD4DB"/><text x="352" y="372" font-family="system-ui,Noto Sans SC" font-size="11" font-weight="400" fill="#253544">PJ-244     项目 5     进行中     80%</text><line x1="342" y1="430" x2="1054" y2="430" stroke="#CCD4DB"/><text x="352" y="420" font-family="system-ui,Noto Sans SC" font-size="11" font-weight="400" fill="#253544">PJ-245     项目 6     进行中     82%</text><line x1="342" y1="478" x2="1054" y2="478" stroke="#CCD4DB"/><text x="352" y="468" font-family="system-ui,Noto Sans SC" font-size="11" font-weight="400" fill="#B78332">PJ-246     项目 7     待审批     84%</text><line x1="342" y1="526" x2="1054" y2="526" stroke="#CCD4DB"/><text x="352" y="516" font-family="system-ui,Noto Sans SC" font-size="11" font-weight="400" fill="#253544">PJ-247     项目 8     进行中     86%</text><line x1="342" y1="574" x2="1054" y2="574" stroke="#CCD4DB"/><text x="352" y="564" font-family="system-ui,Noto Sans SC" font-size="11" font-weight="400" fill="#253544">PJ-248     项目 9     进行中     88%</text><line x1="342" y1="622" x2="1054" y2="622" stroke="#CCD4DB"/><text x="352" y="612" font-family="system-ui,Noto Sans SC" font-size="11" font-weight="400" fill="#B78332">PJ-249     项目 10     待审批     90%</text><text x="1120" y="148" font-family="system-ui,Noto Sans SC" font-size="13" font-weight="700" fill="#253544">流程</text><circle cx="1140" cy="206" r="9" fill="#315D78"/><line x1="1140" y1="215" x2="1140" y2="288" stroke="#CCD4DB"/><text x="1162" y="212" font-family="system-ui,Noto Sans SC" font-size="11" font-weight="700" fill="#253544">提交</text><circle cx="1140" cy="300" r="9" fill="#315D78"/><line x1="1140" y1="309" x2="1140" y2="382" stroke="#CCD4DB"/><text x="1162" y="306" font-family="system-ui,Noto Sans SC" font-size="11" font-weight="700" fill="#253544">部门审核</text><circle cx="1140" cy="394" r="9" fill="#315D78"/><line x1="1140" y1="403" x2="1140" y2="476" stroke="#CCD4DB"/><text x="1162" y="400" font-family="system-ui,Noto Sans SC" font-size="11" font-weight="700" fill="#253544">财务审核</text><circle cx="1140" cy="488" r="9" fill="#CCD4DB"/><line x1="1140" y1="497" x2="1140" y2="570" stroke="#CCD4DB"/><text x="1162" y="494" font-family="system-ui,Noto Sans SC" font-size="11" font-weight="700" fill="#70808E">分管审批</text><circle cx="1140" cy="582" r="9" fill="#CCD4DB"/><line x1="1140" y1="591" x2="1140" y2="664" stroke="#CCD4DB"/><text x="1162" y="588" font-family="system-ui,Noto Sans SC" font-size="11" font-weight="700" fill="#70808E">归档</text><circle cx="1140" cy="676" r="9" fill="#CCD4DB"/><line x1="1140" y1="685" x2="1140" y2="758" stroke="#CCD4DB"/><text x="1162" y="682" font-family="system-ui,Noto Sans SC" font-size="11" font-weight="700" fill="#70808E">完成</text></svg>